<?xml version="1.0" encoding="UTF-8"?>
<svg version="1.1" xmlns="http://www.w3.org/2000/svg" width="789" height="548">
<path d="M0 0 C260.37 0 520.74 0 789 0 C789 180.84 789 361.68 789 548 C528.63 548 268.26 548 0 548 C0 367.16 0 186.32 0 0 Z " fill="#000000" transform="translate(0,0)"/>
<path d="M0 0 C0.9163623 0.18191895 1.83272461 0.36383789 2.77685547 0.55126953 C36.51706798 7.40963425 67.92158372 21.7671073 95 43 C95.53512207 43.41797852 96.07024414 43.83595703 96.62158203 44.26660156 C107.21876822 52.64546541 116.56606611 62.35900695 126 72 C129.30399176 70.71848044 132.47804159 69.31217754 135.640625 67.71484375 C165.52251044 52.85883105 207.01242194 34.67080731 241 46 C247.76181863 48.70260776 252.9999673 51.7711668 257 58 C258.88585517 63.6575655 259.11367851 69.90065641 257.08203125 75.5546875 C252.73150222 83.33715878 246.19825194 89.67740042 240 96 C239.28070312 96.73444336 238.56140625 97.46888672 237.8203125 98.22558594 C235.47060655 100.61583816 233.11275809 102.99765098 230.75 105.375 C230.00588867 106.12394531 229.26177734 106.87289062 228.49511719 107.64453125 C224.381217 111.74563832 220.18132394 115.6844269 215.77197266 119.46679688 C202.21019988 131.20114973 187.83726993 149.58330416 184.3125 167.375 C184.06113281 168.62023437 183.80976562 169.86546875 183.55078125 171.1484375 C183.36902344 172.08945313 183.18726563 173.03046875 183 174 C176.47138741 169.25191812 173.30684038 163.99981727 172 156 C169.98056782 138.25784587 181.08101774 121.48265782 191.51953125 108.0078125 C202.98872789 94.10028272 215.92480008 82.7927033 230.46289062 72.18579102 C232.14445803 70.94085056 232.14445803 70.94085056 234 69 C228.09914432 64.95123771 222.95310046 65.25220016 216 66 C192.60589793 70.44829671 167.87336208 83.65895307 148.70556641 97.2434082 C147 98 147 98 144.89892578 97.77392578 C141.89313597 96.54888673 140.92637499 94.28141398 139.25 91.5625 C135.52111592 85.7098342 131.43474865 80.33113402 127 75 C121.88667883 75.48183219 118.56202696 78.04512574 114.5 80.9375 C113.45465088 81.67033203 113.45465088 81.67033203 112.38818359 82.41796875 C100.55342368 90.07905214 100.55342368 90.07905214 91 100 C91.31751221 100.63502441 91.63502441 101.27004883 91.9621582 101.92431641 C96.30810547 110.61621094 100.65405273 119.30810547 105 128 C105.96873047 127.16082031 105.96873047 127.16082031 106.95703125 126.3046875 C113.35957994 120.85682801 119.93652464 115.69789118 126.6875 110.6875 C127.47036377 110.10145996 128.25322754 109.51541992 129.05981445 108.91162109 C134.16190161 105.15692176 139.38727982 101.93617981 145 99 C149.23277124 105.03476132 152.80148043 111.14426545 155.9375 117.8125 C156.57981567 119.17665039 156.57981567 119.17665039 157.23510742 120.56835938 C163.0798987 133.23626874 167.49444951 146.2042982 170.8125 159.75 C171.00755127 160.54019531 171.20260254 161.33039063 171.40356445 162.14453125 C174.38131109 175.06955417 175.33673534 188.00253598 175.26074219 201.22680664 C175.25001999 203.43338577 175.26072101 205.63914825 175.2734375 207.84570312 C175.28827325 221.66209374 173.99532304 235.27854702 170.8125 248.75 C170.48995239 250.1265979 170.48995239 250.1265979 170.16088867 251.53100586 C162.78943389 281.94508224 149.24250809 310.0605541 129 334 C127.96359375 335.23169922 127.96359375 335.23169922 126.90625 336.48828125 C124.66329625 339.05473794 122.35134931 341.53211151 120 344 C119.41508789 344.61746094 118.83017578 345.23492187 118.22753906 345.87109375 C108.23093549 356.35835858 97.85593689 365.66504262 86 374 C85.42781738 374.40621582 84.85563477 374.81243164 84.26611328 375.23095703 C37.96423828 407.69612498 -23.79242985 421.23070214 -79.5625 412.0390625 C-122.69583151 404.08595922 -159.07761562 386.54317493 -193 359 C-190.93508146 356.93508146 -189.94002988 356.48675433 -187.24609375 355.58984375 C-186.48248535 355.32703613 -185.71887695 355.06422852 -184.93212891 354.79345703 C-183.6972876 354.3697583 -183.6972876 354.3697583 -182.4375 353.9375 C-168.63326388 349.00947416 -156.30937538 342.36833494 -144.5390625 333.65234375 C-142 332 -142 332 -139 332 C-138.89437744 331.39639648 -138.78875488 330.79279297 -138.67993164 330.17089844 C-137.5358413 326.51802544 -134.32232184 324.58265325 -131.4375 322.25 C-130.14915672 321.17543301 -128.86268706 320.09861556 -127.578125 319.01953125 C-126.95744141 318.49955566 -126.33675781 317.97958008 -125.69726562 317.44384766 C-118.58397339 311.39263789 -112.76760498 304.30738196 -107 297 C-106.4440918 296.2992334 -105.88818359 295.5984668 -105.31542969 294.87646484 C-103.45434171 292.52643008 -101.60096592 290.17051372 -99.75 287.8125 C-99.15944824 287.06436035 -98.56889648 286.3162207 -97.96044922 285.54541016 C-94.73913732 281.41465857 -91.80027194 277.25387583 -89.14941406 272.7331543 C-88 271 -88 271 -86.54833984 269.55883789 C-84.67686594 267.67467502 -83.38228843 265.66517439 -81.9609375 263.421875 C-81.38520996 262.51638916 -80.80948242 261.61090332 -80.21630859 260.67797852 C-79.30486084 259.22862915 -79.30486084 259.22862915 -78.375 257.75 C-77.7454541 256.75218506 -77.1159082 255.75437012 -76.46728516 254.72631836 C-74.63917075 251.82106451 -72.81854983 248.91124744 -71 246 C-70.55785156 245.29697754 -70.11570312 244.59395508 -69.66015625 243.86962891 C-49.55319439 212.6991923 -49.55319439 212.6991923 -44 177 C-45.19248165 172.1313329 -46.94778702 168.14761591 -51.3125 165.4375 C-58.7703847 162.47648455 -67.5639387 162.42015731 -74.9765625 165.46875 C-82.18432068 168.77309788 -82.18432068 168.77309788 -88 174 C-88.72197162 176.60611077 -88.72197162 176.60611077 -89 179 C-85.00013446 177.41671989 -81.59411132 175.77413799 -78.0625 173.3125 C-73.85936078 170.57881766 -70.94154057 170.47983783 -66 171 C-65.67 171.33 -65.34 171.66 -65 172 C-65.015625 173.96875 -65.015625 173.96875 -65.25 176.5 C-65.31703125 177.3146875 -65.3840625 178.129375 -65.453125 178.96875 C-67.07854613 187.97822714 -70.1571426 193.07582625 -76.8125 199.375 C-77.95537476 200.48234497 -77.95537476 200.48234497 -79.12133789 201.61206055 C-107.94520167 229.15459635 -144.478036 246.53740115 -180.9375 261.625 C-181.7718457 261.98013672 -182.60619141 262.33527344 -183.46582031 262.70117188 C-186.67970252 264.00470452 -189.39962337 264.95670754 -192.87109375 265.20703125 C-196.38499359 263.21474675 -197.01083523 259.72409975 -198.125 256.0625 C-198.37797852 255.28342285 -198.63095703 254.5043457 -198.89160156 253.70166016 C-199.38974933 252.15740207 -199.87893957 250.61022098 -200.35839844 249.06005859 C-200.86840544 247.42252468 -201.41606884 245.79672891 -201.9765625 244.17578125 C-206.05585009 232.04093081 -206.35202187 219.04653754 -206.31567383 206.36645508 C-206.31250674 204.06739065 -206.33611919 201.76961078 -206.36132812 199.47070312 C-206.41860555 186.24570665 -204.67654973 173.54568896 -200.3125 161 C-200.05831299 160.25854736 -199.80412598 159.51709473 -199.54223633 158.75317383 C-186.63887732 122.42988995 -158.88266099 95.98054654 -125 79 C-121.06604197 77.16083559 -117.05657038 75.5474111 -113 74 C-120.80231165 73.75889852 -128.13147473 74.40153679 -135.8125 75.75 C-136.85696289 75.92756836 -137.90142578 76.10513672 -138.97753906 76.28808594 C-145.9498763 77.51748163 -152.64951782 79.08566497 -159.390625 81.265625 C-162 82 -162 82 -166 82 C-164.43846617 77.00883973 -161.47075208 73.52164535 -158.1875 69.5625 C-157.61362549 68.86455322 -157.03975098 68.16660645 -156.44848633 67.44750977 C-148.34090976 57.6832972 -139.92173607 47.97335889 -130 40 C-146.90548365 39.01839127 -163.9857651 42.27598348 -180.1640625 46.9140625 C-183.11226882 47.7486871 -185.98754989 48.46418872 -189 49 C-142.87543207 1.35484192 -62.76009911 -12.80024143 0 0 Z " fill="#F80404" transform="translate(445,75)"/>
<path d="M0 0 C-0.59425781 0.52207031 -1.18851563 1.04414062 -1.80078125 1.58203125 C-19.69466064 17.47224141 -36.5972419 36.16745991 -47 58 C-45.73349609 57.46826172 -45.73349609 57.46826172 -44.44140625 56.92578125 C15.32721198 32 15.32721198 32 23 32 C21.72121654 35.66354182 19.96410125 38.72813726 17.82739258 41.95825195 C-4.00494316 75.04176245 -16.20590419 115.07563793 -16.25 154.625 C-16.25133942 155.33621002 -16.25267883 156.04742004 -16.25405884 156.78018188 C-16.24980533 167.19202552 -15.63781478 176.88635069 -13 187 C-12.77183594 188.11375 -12.54367188 189.2275 -12.30859375 190.375 C-10.86547931 197.36792028 -8.69577489 203.81296215 -5.98828125 210.41796875 C-5 213 -5 213 -5 215 C-41.19245774 227 -41.19245774 227 -58 227 C-57.6390625 227.74765625 -57.278125 228.4953125 -56.90625 229.265625 C-56.4421875 230.25046875 -55.978125 231.2353125 -55.5 232.25 C-55.0359375 233.22453125 -54.571875 234.1990625 -54.09375 235.203125 C-53 238 -53 238 -53 242 C-54.76982934 242.31813686 -56.54094627 242.62911009 -58.3125 242.9375 C-59.29863281 243.11152344 -60.28476563 243.28554688 -61.30078125 243.46484375 C-91.6617963 247.85709197 -125.41841612 246.90217152 -151.26171875 228.37890625 C-153.55097647 226.63378449 -155.77807902 224.82981728 -158 223 C-158.69222656 222.46632813 -159.38445312 221.93265625 -160.09765625 221.3828125 C-170.00547724 213.40310311 -176.19447032 201.25765219 -178.61328125 188.85546875 C-180.72197353 167.83244567 -178.73866347 149.88781947 -169 131 C-168.49855469 129.97777344 -167.99710938 128.95554688 -167.48046875 127.90234375 C-156.01476119 105.38938512 -138.44229054 84.08407672 -119 68 C-118.02289063 67.13503906 -117.04578125 66.27007812 -116.0390625 65.37890625 C-98.26627525 49.66756401 -22.72633054 -11.36316527 0 0 Z " fill="#F60303" transform="translate(254,126)"/>
<path d="M0 0 C0.9163623 0.18191895 1.83272461 0.36383789 2.77685547 0.55126953 C36.51706798 7.40963425 67.92158372 21.7671073 95 43 C95.53512207 43.41797852 96.07024414 43.83595703 96.62158203 44.26660156 C107.21876822 52.64546541 116.56606611 62.35900695 126 72 C129.30399176 70.71848044 132.47804159 69.31217754 135.640625 67.71484375 C165.52251044 52.85883105 207.01242194 34.67080731 241 46 C247.76181863 48.70260776 252.9999673 51.7711668 257 58 C258.88585517 63.6575655 259.11367851 69.90065641 257.08203125 75.5546875 C252.73150222 83.33715878 246.19825194 89.67740042 240 96 C239.28070312 96.73444336 238.56140625 97.46888672 237.8203125 98.22558594 C235.47060655 100.61583816 233.11275809 102.99765098 230.75 105.375 C230.00588867 106.12394531 229.26177734 106.87289062 228.49511719 107.64453125 C224.381217 111.74563832 220.18132394 115.6844269 215.77197266 119.46679688 C202.21019988 131.20114973 187.83726993 149.58330416 184.3125 167.375 C184.06113281 168.62023437 183.80976562 169.86546875 183.55078125 171.1484375 C183.36902344 172.08945313 183.18726563 173.03046875 183 174 C176.47138741 169.25191812 173.30684038 163.99981727 172 156 C169.98056782 138.25784587 181.08101774 121.48265782 191.51953125 108.0078125 C202.98872789 94.10028272 215.92480008 82.7927033 230.46289062 72.18579102 C232.14445803 70.94085056 232.14445803 70.94085056 234 69 C228.09914432 64.95123771 222.95310046 65.25220016 216 66 C192.60589793 70.44829671 167.87336208 83.65895307 148.70556641 97.2434082 C147 98 147 98 144.89892578 97.77392578 C141.89313597 96.54888673 140.92637499 94.28141398 139.25 91.5625 C135.52111592 85.7098342 131.43474865 80.33113402 127 75 C121.88667883 75.48183219 118.56202696 78.04512574 114.5 80.9375 C113.45465088 81.67033203 113.45465088 81.67033203 112.38818359 82.41796875 C100.55342368 90.07905214 100.55342368 90.07905214 91 100 C91.31751221 100.63502441 91.63502441 101.27004883 91.9621582 101.92431641 C96.30810547 110.61621094 100.65405273 119.30810547 105 128 C106.32 127.34 107.64 126.68 109 126 C106.78972846 129.37357234 104.53600465 131.08864614 101 133 C101.60327029 137.63098665 103.58554904 141.31406362 105.75 145.375 C111.77947217 157.10047376 115.51264596 168.83580679 117 182 C110.28896265 180.56545393 104.31702601 177.86971656 98.25 174.75 C97.16924194 174.21258179 97.16924194 174.21258179 96.06665039 173.66430664 C90.4143375 170.67590002 85.90017119 166.80034239 83 161 C81.977409 153.98794742 84.93059862 149.56562573 89 144 C91.88935375 140.55626619 94.89152781 137.24662651 98 134 C94.79691999 126.96067299 90.2128754 121.50820019 85.01464844 115.87451172 C81 111.4178262 81 111.4178262 81 107 C82.71690036 105.08614848 84.59940475 103.53149426 86.56640625 101.87890625 C88.2323738 100.09110099 88.2323738 100.09110099 87.9921875 97.71484375 C86.67956635 94.1232229 84.71962935 91.1257766 82.5625 88 C81.89033447 87.01205444 81.89033447 87.01205444 81.20458984 86.00415039 C56.61845273 50.22568817 22.14436119 16.62465576 -22.0625 8 C-57.60940804 2.13155087 -90.22993141 11.90683438 -119.0625 32.5625 C-122.67814955 35.10607601 -122.67814955 35.10607601 -126 38 C-124.77925781 38.15855469 -123.55851562 38.31710938 -122.30078125 38.48046875 C-106.92742816 40.60260541 -91.39268299 43.81817917 -80.984375 56.4453125 C-77 62.23568925 -77 62.23568925 -77 65 C-77.60473145 65.14099121 -78.20946289 65.28198242 -78.83251953 65.42724609 C-81.59736745 66.0735948 -84.3611825 66.7242599 -87.125 67.375 C-88.07632813 67.59671875 -89.02765625 67.8184375 -90.0078125 68.046875 C-94.75624604 69.16803292 -99.40247885 70.343654 -104 72 C-103.34 72.66 -102.68 73.32 -102 74 C-103.3096875 73.95359375 -104.619375 73.9071875 -105.96875 73.859375 C-124.22314097 73.41959167 -141.97621302 75.63409874 -159.390625 81.265625 C-162 82 -162 82 -166 82 C-164.43846617 77.00883973 -161.47075208 73.52164535 -158.1875 69.5625 C-157.61362549 68.86455322 -157.03975098 68.16660645 -156.44848633 67.44750977 C-148.34090976 57.6832972 -139.92173607 47.97335889 -130 40 C-146.90548365 39.01839127 -163.9857651 42.27598348 -180.1640625 46.9140625 C-183.11226882 47.7486871 -185.98754989 48.46418872 -189 49 C-142.87543207 1.35484192 -62.76009911 -12.80024143 0 0 Z " fill="#F50303" transform="translate(445,75)"/>
<path d="M0 0 C0.495 0.99 0.495 0.99 1 2 C0.06640625 4.08203125 0.06640625 4.08203125 -1.4375 6.8125 C-9.26715936 22.05302299 -14.52301972 38.25524033 -18 55 C-18.16371094 55.75442383 -18.32742187 56.50884766 -18.49609375 57.28613281 C-23.07599409 79.11636028 -22.75281861 104.0388726 -19 126 C-18.87109375 126.78552246 -18.7421875 127.57104492 -18.609375 128.38037109 C-16.87789739 138.6670315 -14.49089675 148.48106305 -10.84277344 158.265625 C-9.48800125 161.9839324 -8.79181264 164.22200905 -10 168 C-18.15944025 169.58754228 -26.00342797 170.35650046 -34.3125 170.3125 C-35.43188965 170.30758545 -36.5512793 170.3026709 -37.70458984 170.29760742 C-60.23759664 169.98786991 -89.16785672 167.18125718 -106.48046875 150.7890625 C-116.54181886 138.94305131 -119.30895175 127.66394944 -118.29736328 112.48730469 C-115.76760947 91.32709797 -97.2510888 71.85134526 -83 57 C-82.09121094 56.04996094 -81.18242188 55.09992188 -80.24609375 54.12109375 C-74.1843271 47.92136371 -67.86441514 42.2941241 -61 37 C-60.4539209 36.57750977 -59.9078418 36.15501953 -59.34521484 35.71972656 C-41.04700705 21.65840381 -20.76129703 10.02676277 0 0 Z " fill="#010000" transform="translate(204,186)"/>
<path d="M0 0 C22.03635093 16.6750741 46.06834976 39.74387485 57.45996094 65.375 C57.3051292 69.01017994 55.46465126 70.69783824 52.89746094 73.125 C52.25679687 73.73859375 51.61613281 74.3521875 50.95605469 74.984375 C50.46234375 75.44328125 49.96863281 75.9021875 49.45996094 76.375 C51.12272779 80.39092229 53.92900903 83.35169647 56.77246094 86.5625 C61.07141024 91.5096869 64.66632932 96.40187604 67.45996094 102.375 C66.79609375 103.06464844 66.13222656 103.75429687 65.44824219 104.46484375 C56.3330587 113.96370166 56.3330587 113.96370166 51.89746094 126.0625 C52.87733807 131.83288757 55.6177318 134.99271205 60.27246094 138.3125 C68.10994208 143.25493819 76.84357078 147.0205275 85.45996094 150.375 C82.08185249 135.16302097 77.79150557 119.79477629 69.42871094 106.50390625 C68.45996094 104.375 68.45996094 104.375 68.55371094 102.21484375 C69.73522781 99.81616079 71.0149113 99.32147083 73.45996094 98.375 C80.43241422 114.62009735 87.45996094 133.4870874 87.45996094 151.375 C86.79996094 151.375 86.13996094 151.375 85.45996094 151.375 C85.78996094 152.035 86.11996094 152.695 86.45996094 153.375 C86.49995294 155.37460012 86.50342893 157.37547242 86.45996094 159.375 C68.05482116 153.68613861 44.53480883 145.22915962 34.45996094 127.5625 C30.37783162 119.55415602 30.23315278 110.6173607 32.26074219 101.953125 C34.91944245 94.46125484 38.90827289 88.43261115 43.66699219 82.15234375 C45.82154032 79.36587466 45.82154032 79.36587466 45.45996094 75.375 C43.67134574 73.45775152 41.98207068 71.88758505 39.95996094 70.25 C39.37899658 69.77135498 38.79803223 69.29270996 38.19946289 68.79956055 C15.15371462 50.27330399 -11.87026581 40.25568702 -40.54003906 34.375 C-41.9669104 34.07372192 -41.9669104 34.07372192 -43.42260742 33.76635742 C-53.16367126 31.97572652 -62.90329891 32.10599755 -72.77026367 32.16918945 C-75.73202092 32.18752775 -78.69346507 32.18969788 -81.65527344 32.18945312 C-83.56868756 32.19436745 -85.48209959 32.2001954 -87.39550781 32.20703125 C-88.26555954 32.20814407 -89.13561127 32.2092569 -90.0320282 32.21040344 C-95.9171148 32.25519715 -101.69487904 32.69547524 -107.54003906 33.375 C-107.38140381 33.95733398 -107.22276855 34.53966797 -107.05932617 35.13964844 C-103.71890189 49.51902068 -107.97536253 62.69179 -114.54003906 75.375 C-115.20003906 75.375 -115.86003906 75.375 -116.54003906 75.375 C-116.6847676 72.26333635 -116.7644507 69.91163651 -115.55175781 67.01171875 C-113.52147108 61.72043093 -113.65137529 55.62004532 -115.72753906 50.375 C-119.91439716 45.75501866 -125.00133634 44.53134191 -130.85253906 43.1875 C-131.59310547 43.01025391 -132.33367187 42.83300781 -133.09667969 42.65039062 C-134.90934248 42.21769047 -136.72445933 41.79529284 -138.54003906 41.375 C-130.07961714 35.73471872 -118.44760771 34.6257894 -108.54003906 33.375 C-115.05435989 21.44645889 -123.40208389 14.84427209 -136.47802734 10.89501953 C-143.69232575 9.07564283 -151.16712175 8.27915636 -158.54003906 7.375 C-115.9316174 -36.44003183 -47.09352713 -34.51970382 0 0 Z " fill="#020000" transform="translate(476.5400390625,106.625)"/>
<path d="M0 0 C0.33 0.66 0.66 1.32 1 2 C-0.26268306 4.8557013 -1.5944968 7.5628719 -3.0625 10.3125 C-3.51077148 11.15554688 -3.95904297 11.99859375 -4.42089844 12.8671875 C-19.74031106 41.0374818 -40.26425099 67.04961266 -62.32324219 90.22607422 C-64.99935016 93.05726242 -67.62531753 95.93370254 -70.25 98.8125 C-74.8 103.8 -74.8 103.8 -77 106 C-80.61991736 105.70831244 -82.32363813 104.00384429 -84.75 101.4375 C-85.36359375 100.79683594 -85.9771875 100.15617187 -86.609375 99.49609375 C-87.06828125 99.00238281 -87.5271875 98.50867188 -88 98 C-87.59007812 98.47050781 -87.18015625 98.94101562 -86.7578125 99.42578125 C-85.94957031 100.35970703 -85.94957031 100.35970703 -85.125 101.3125 C-84.59132813 101.92738281 -84.05765625 102.54226563 -83.5078125 103.17578125 C-82 105 -82 105 -80 108 C-110.58510638 138 -110.58510638 138 -123 138 C-122.25943359 138.81404297 -122.25943359 138.81404297 -121.50390625 139.64453125 C-120.86324219 140.35996094 -120.22257812 141.07539063 -119.5625 141.8125 C-118.60537109 142.87404297 -118.60537109 142.87404297 -117.62890625 143.95703125 C-116 146 -116 146 -115 149 C-139.68137573 154.40889723 -167.11238433 154.58195251 -189.30908203 141.10302734 C-201.43884155 133.19048713 -208.98831704 121.78071846 -213 108 C-213.57754028 104.65882255 -213.91585991 101.38855091 -214 98 C-212.1171875 98.1328125 -212.1171875 98.1328125 -210 99 C-208.9453125 101.5546875 -208.9453125 101.5546875 -208.125 104.875 C-203.90724873 119.94312315 -195.9917172 129.55694158 -183 138 C-179.09356315 140.01653972 -175.1675314 141.60887451 -171 143 C-170.27683594 143.24492187 -169.55367187 143.48984375 -168.80859375 143.7421875 C-154.423362 147.72746992 -138.46780621 144.7167361 -125 139 C-128.90817742 134.38013242 -128.90817742 134.38013242 -132.98046875 129.90625 C-142.94682251 119.30451849 -163 97.17988123 -163 82 C-161.72511719 81.74347656 -160.45023438 81.48695313 -159.13671875 81.22265625 C-146.71793698 78.61365865 -134.81588044 75.14719843 -122.83862305 70.94750977 C-121.74461182 70.56651123 -120.65060059 70.1855127 -119.5234375 69.79296875 C-118.0681665 69.27512817 -118.0681665 69.27512817 -116.58349609 68.74682617 C-114 68 -114 68 -110 68 C-108.27896619 70.42495752 -106.85055034 72.71753909 -105.4375 75.3125 C-104.66939528 76.68585586 -103.89737909 78.05703283 -103.12109375 79.42578125 C-102.7852124 80.03848877 -102.44933105 80.65119629 -102.10327148 81.2824707 C-100.92282206 83.12014756 -99.59260162 84.51317374 -98 86 C-98.62648438 85.04738281 -99.25296875 84.09476562 -99.8984375 83.11328125 C-100.72418849 81.84650416 -101.54969652 80.57956868 -102.375 79.3125 C-102.7875 78.68666016 -103.2 78.06082031 -103.625 77.41601562 C-105.8194615 74.03583702 -107.66630311 70.83254656 -109 67 C-104.13870803 63.50742131 -99.10550333 61.12614394 -93.625 58.75 C-73.25879916 49.73609099 -53.4614764 39.50329753 -35 27 C-34.3311377 26.54898926 -33.66227539 26.09797852 -32.97314453 25.63330078 C-23.80355932 19.41281259 -15.15352839 12.84123604 -6.85546875 5.49609375 C-4.62608214 3.54728658 -2.40123646 1.72679716 0 0 Z " fill="#F40404" transform="translate(366,285)"/>
<path d="M0 0 C0.66 0.33 1.32 0.66 2 1 C1.72285156 2.24136719 1.44570312 3.48273438 1.16015625 4.76171875 C0.79424248 6.40363951 0.42835864 8.04556695 0.0625 9.6875 C-0.11990234 10.50412109 -0.30230469 11.32074219 -0.49023438 12.16210938 C-0.66748047 12.95810547 -0.84472656 13.75410156 -1.02734375 14.57421875 C-1.18968506 15.30213623 -1.35202637 16.03005371 -1.51928711 16.7800293 C-1.67792236 17.51261963 -1.83655762 18.24520996 -2 19 C-2.18159668 19.75466553 -2.36319336 20.50933105 -2.55029297 21.28686523 C-3.13370632 24.80666577 -3.1624292 28.27874299 -3.16796875 31.8359375 C-3.17129715 32.59234528 -3.17462555 33.34875305 -3.17805481 34.12808228 C-3.18310663 35.73007605 -3.18546367 37.3320803 -3.18530273 38.93408203 C-3.18746178 41.33254494 -3.2055589 43.73052629 -3.22460938 46.12890625 C-3.27561599 59.42511748 -2.42134663 72.25622077 1.9375 84.9375 C2.18951172 85.70900391 2.44152344 86.48050781 2.70117188 87.27539062 C4.33733698 92.23410073 6.14057869 97.12110051 8 102 C13.04707768 101.45147438 17.19802193 100.3164637 21.8671875 98.33984375 C22.49946762 98.07444794 23.13174774 97.80905212 23.78318787 97.53561401 C25.81766878 96.67841124 27.84651022 95.80877535 29.875 94.9375 C31.28270604 94.33857379 32.69050274 93.73986064 34.09838867 93.14135742 C65.81504059 79.61200202 95.80250729 63.54645525 121.09375 39.71875 C122.91441371 38.01554847 124.76489393 36.3430911 126.65625 34.71875 C132.77893034 29.23219229 135.04169596 24.16210684 136 16 C136.03483792 14.00030344 136.04443347 11.99950636 136 10 C128.83897899 9.05420477 125.29597728 11.30689636 119.515625 15.46875 C117 17 117 17 113 17 C112.5625 14.875 112.5625 14.875 113 12 C117.35967421 6.44868151 124.3543303 2.92568727 131 1 C138.29587775 0.12873734 146.00386751 -0.28840674 152.484375 3.65625 C156.30318736 7.04200116 158.70250846 11.98503768 159.203125 17.05859375 C159.73709654 44.15764933 140.84027458 70.86979805 126.59814453 92.54833984 C125.10023172 94.84623787 123.63476274 97.16065848 122.18359375 99.48828125 C121.76682373 100.15335693 121.35005371 100.81843262 120.9206543 101.50366211 C119.83563316 103.23811195 118.75362431 104.97444519 117.671875 106.7109375 C117.12015625 107.46632813 116.5684375 108.22171875 116 109 C115.34 109 114.68 109 114 109 C113.60627197 110.09550171 113.60627197 110.09550171 113.20458984 111.21313477 C111.98262616 114.04019504 110.59105241 116.1468522 108.7265625 118.58984375 C107.74550537 119.87991333 107.74550537 119.87991333 106.74462891 121.19604492 C106.04515137 122.1007251 105.34567383 123.00540527 104.625 123.9375 C103.90618652 124.87247314 103.18737305 125.80744629 102.44677734 126.77075195 C77.52499108 158.97408701 77.52499108 158.97408701 63 168 C59.02917553 168.01572604 56.36482296 165.12096167 53.4375 162.6875 C52.48746094 161.90761719 51.53742188 161.12773437 50.55859375 160.32421875 C48.35762786 158.32486806 46.66363732 156.44784346 45 154 C45.64066406 153.3709375 46.28132813 152.741875 46.94140625 152.09375 C51.45981256 147.62248057 55.85742562 143.13054394 59.98046875 138.29296875 C61.57524921 136.48226057 63.19568954 134.73032384 64.86328125 132.98828125 C72.64582567 124.83791697 79.62176837 116.31602256 86.32324219 107.25927734 C88.03733915 104.94968893 89.77101507 102.65583467 91.5078125 100.36328125 C103.53335775 84.39696581 113.96104919 67.82681965 123 50 C119.67358844 51.45437277 117.47709549 53.29900633 114.875 55.8125 C87.81558548 80.53442483 53.36914953 97.14559443 20.21972656 111.98193359 C18.12195562 112.94406567 16.05745378 113.95482288 14 115 C18.35724106 122.25469578 22.71246576 129.37055367 28 136 C27.67 136.66 27.34 137.32 27 138 C13 121.29949239 13 121.29949239 13 116 C12.34 116 11.68 116 11 116 C10.76925781 115.40574219 10.53851563 114.81148438 10.30078125 114.19921875 C8.50551396 109.63654339 6.62178626 105.17093546 4.5 100.75 C-0.54094268 89.74033377 -2.84682891 77.84929822 -5 66 C-5.17418457 65.08452393 -5.34836914 64.16904785 -5.52783203 63.22583008 C-6.03210156 59.78068362 -6.14624941 56.49311942 -6.16796875 53.01171875 C-6.1721582 52.35541977 -6.17634766 51.69912079 -6.18066406 51.02293396 C-6.19039052 48.91106078 -6.19046337 46.79939174 -6.1875 44.6875 C-6.18722809 43.96890808 -6.18695618 43.25031616 -6.18667603 42.50994873 C-6.12312847 6.12312847 -6.12312847 6.12312847 0 0 Z " fill="#646060" transform="translate(243,237)"/>
<path d="M0 0 C0.53367187 0.37511719 1.06734375 0.75023437 1.6171875 1.13671875 C10.21113644 7.03948299 19.34653356 12.38951013 29.75 14.0625 C34.89473684 14.89473684 34.89473684 14.89473684 36 16 C40.48837678 16.88015276 45.0300366 17.45542643 49.5625 18.0625 C50.24706268 18.15437592 50.93162537 18.24625183 51.63693237 18.34091187 C85.85381945 22.81192109 122.28572363 22.3934358 153.25585938 5.74975586 C155 5 155 5 158 5 C156.02374769 13.88372466 152.59838033 21.87004553 148.85131836 30.11083984 C147.10342766 33.98958325 145.41267 37.88336353 143.9375 41.875 C143 44 143 44 141 45 C141.33 43.68 141.66 42.36 142 41 C141.37125977 41.11972168 140.74251953 41.23944336 140.09472656 41.36279297 C109.31040369 47.10497526 78.31202324 50.93036207 48 41 C47.31760254 40.78327637 46.63520508 40.56655273 45.93212891 40.34326172 C32.49358414 36.04984541 19.72375963 30.68140262 10 20 C10 19.34 10 18.68 10 18 C9.34 18 8.68 18 8 18 C6.66180502 15.3773768 5.3292849 12.75213401 4 10.125 C3.6184375 9.37863281 3.236875 8.63226563 2.84375 7.86328125 C2.4828125 7.14785156 2.121875 6.43242187 1.75 5.6953125 C1.41484375 5.03547363 1.0796875 4.37563477 0.734375 3.69580078 C0 2 0 2 0 0 Z " fill="#0F0C0C" transform="translate(400,316)"/>
<path d="M0 0 C15.30036952 4.51486314 29.40109979 13.0188718 37.25 27.26953125 C41.21761669 35.79715184 41.34274349 44.78311735 38.4375 53.6875 C30.05941847 73.95419723 12.14908132 83.74025851 -7 92 C-14.27987421 95 -14.27987421 95 -18 95 C-17.34720705 92.10318036 -16.43710921 89.49279573 -15.2578125 86.76953125 C-14.91363281 85.96580078 -14.56945312 85.16207031 -14.21484375 84.33398438 C-13.496624 82.67229675 -12.77788639 81.01083286 -12.05859375 79.34960938 C-8.66114627 71.41170699 -5.83984493 64.73316164 -6 56 C-5.47087952 52.33336623 -4.74757086 48.70280747 -4.0625 45.0625 C-2.15755678 34.41659815 -1.42247152 23.98694825 -1.17578125 13.1875 C-1.06868062 8.72688153 -0.64031173 4.41450689 0 0 Z " fill="#030000" transform="translate(565,259)"/>
<path d="M0 0 C3.23601492 1.64522628 5.26858846 4.30059682 7.52734375 7.0625 C8.01307861 7.64539795 8.49881348 8.2282959 8.99926758 8.82885742 C12.62717016 13.27409181 15.65271322 17.85161871 18.08984375 23.0625 C17.42597656 23.75214844 16.76210938 24.44179687 16.078125 25.15234375 C6.96294152 34.65120166 6.96294152 34.65120166 2.52734375 46.75 C3.50722088 52.52038757 6.24761461 55.68021205 10.90234375 59 C18.73982489 63.94243819 27.47345359 67.7080275 36.08984375 71.0625 C32.7117353 55.85052097 28.42138838 40.48227629 20.05859375 27.19140625 C19.08984375 25.0625 19.08984375 25.0625 19.18359375 22.90234375 C20.36511062 20.50366079 21.64479411 20.00897083 24.08984375 19.0625 C31.06229704 35.30759735 38.08984375 54.1745874 38.08984375 72.0625 C37.42984375 72.0625 36.76984375 72.0625 36.08984375 72.0625 C36.41984375 72.7225 36.74984375 73.3825 37.08984375 74.0625 C37.12983575 76.06210012 37.13331174 78.06297242 37.08984375 80.0625 C18.68470397 74.37363861 -4.83530836 65.91665962 -14.91015625 48.25 C-19.00509141 40.21653345 -19.18066681 31.20721317 -17.0390625 22.53515625 C-14.58653174 15.77260421 -8.75202036 0.28636467 0 0 Z " fill="#0F0B0B" transform="translate(525.91015625,185.9375)"/>
<path d="M0 0 C8.41797538 3.12500011 14.09556614 6.48549834 20 13.3125 C22.03078337 18.7702303 21.55378718 24.11060845 19.9375 29.625 C14.87634661 38.44120268 5.82686017 47.72437994 -4 51 C-3.79503906 49.74832031 -3.59007812 48.49664062 -3.37890625 47.20703125 C-0.94904466 31.46921246 -0.30380893 15.90213132 0 0 Z " fill="#F20404" transform="translate(565,267)"/>
<path d="M0 0 C0.66 0.33 1.32 0.66 2 1 C1.72285156 2.24136719 1.44570312 3.48273438 1.16015625 4.76171875 C0.79424248 6.40363951 0.42835864 8.04556695 0.0625 9.6875 C-0.11990234 10.50412109 -0.30230469 11.32074219 -0.49023438 12.16210938 C-0.66748047 12.95810547 -0.84472656 13.75410156 -1.02734375 14.57421875 C-1.18968506 15.30213623 -1.35202637 16.03005371 -1.51928711 16.7800293 C-1.67792236 17.51261963 -1.83655762 18.24520996 -2 19 C-2.18159668 19.75466553 -2.36319336 20.50933105 -2.55029297 21.28686523 C-3.13370632 24.80666577 -3.1624292 28.27874299 -3.16796875 31.8359375 C-3.17129715 32.59234528 -3.17462555 33.34875305 -3.17805481 34.12808228 C-3.18310663 35.73007605 -3.18546367 37.3320803 -3.18530273 38.93408203 C-3.18746178 41.33254494 -3.2055589 43.73052629 -3.22460938 46.12890625 C-3.27561599 59.42511748 -2.42134663 72.25622077 1.9375 84.9375 C2.18951172 85.70900391 2.44152344 86.48050781 2.70117188 87.27539062 C3.44375914 89.52594283 4.21451807 91.76409106 5 94 C5.26055176 94.75039551 5.52110352 95.50079102 5.78955078 96.27392578 C7.27680021 100.50458631 7.27680021 100.50458631 10 104 C11.21477079 107.28702686 12.21217204 110.58607883 13 114 C14.98 113.505 14.98 113.505 17 113 C16.67 113.66 16.34 114.32 16 115 C15.34 115 14.68 115 14 115 C18.35724106 122.25469578 22.71246576 129.37055367 28 136 C27.67 136.66 27.34 137.32 27 138 C13 121.29949239 13 121.29949239 13 116 C12.34 116 11.68 116 11 116 C10.76925781 115.40574219 10.53851563 114.81148438 10.30078125 114.19921875 C8.50551396 109.63654339 6.62178626 105.17093546 4.5 100.75 C-0.54094268 89.74033377 -2.84682891 77.84929822 -5 66 C-5.17418457 65.08452393 -5.34836914 64.16904785 -5.52783203 63.22583008 C-6.03210156 59.78068362 -6.14624941 56.49311942 -6.16796875 53.01171875 C-6.1721582 52.35541977 -6.17634766 51.69912079 -6.18066406 51.02293396 C-6.19039052 48.91106078 -6.19046337 46.79939174 -6.1875 44.6875 C-6.18722809 43.96890808 -6.18695618 43.25031616 -6.18667603 42.50994873 C-6.12312847 6.12312847 -6.12312847 6.12312847 0 0 Z " fill="#643636" transform="translate(243,237)"/>
<path d="M0 0 C0.66 0 1.32 0 2 0 C5.43858346 8.01154497 8.48641489 16.04631191 10.875 24.4375 C11.08987061 25.16952637 11.30474121 25.90155273 11.52612305 26.65576172 C12.87638619 31.57382052 13.19541964 35.90184635 13 41 C10.24710136 38.24710136 9.55320767 34.99580414 8.375 31.375 C6.00055808 24.28210605 3.07035248 17.72546623 -0.54736328 11.17919922 C-3.03529668 6.53850066 -3.03529668 6.53850066 -2.84765625 3.67578125 C-2 2 -2 2 0 0 Z " fill="#110000" transform="translate(548,205)"/>
<path d="M0 0 C2.11470482 3.76926554 3.26198732 7.82204574 4.5 11.9375 C6.57602344 20.11139095 6.57602344 20.11139095 11 27 C12.21477079 30.28702686 13.21217204 33.58607883 14 37 C15.98 36.505 15.98 36.505 18 36 C17.67 36.66 17.34 37.32 17 38 C16.34 38 15.68 38 15 38 C19.35724106 45.25469578 23.71246576 52.37055367 29 59 C28.67 59.66 28.34 60.32 28 61 C14 44.29949239 14 44.29949239 14 39 C13.34 39 12.68 39 12 39 C11.76925781 38.40574219 11.53851563 37.81148438 11.30078125 37.19921875 C9.50551396 32.63654339 7.62178626 28.17093546 5.5 23.75 C-1.68068962 8.11750489 -1.68068962 8.11750489 -0.6015625 1.58984375 C-0.40304688 1.06519531 -0.20453125 0.54054688 0 0 Z " fill="#5B0101" transform="translate(242,314)"/>
<path d="M0 0 C0.33 0 0.66 0 1 0 C1.32864959 16.29596349 1.34725499 32.00091813 -2 48 C-4.14360849 45.12121892 -3.96970592 43.72096094 -3.57421875 40.078125 C-3.28685494 38.46726396 -2.99067849 36.85795959 -2.6875 35.25 C-0.68024923 23.54231756 -0.27784695 11.8568498 0 0 Z " fill="#1A1111" transform="translate(564,267)"/>
<path d="M0 0 C0.66 0.33 1.32 0.66 2 1 C0.67243471 7.81760091 -1.36112801 13.9594815 -4 20.375 C-4.35578125 21.26316406 -4.7115625 22.15132813 -5.078125 23.06640625 C-6.52579795 26.63697274 -7.85396596 29.78094895 -10 33 C-10 34.32 -10 35.64 -10 37 C-11.485 37.495 -11.485 37.495 -13 38 C-13.33 37.34 -13.66 36.68 -14 36 C-12.86092087 33.36022932 -11.66064138 30.81736397 -10.375 28.25 C-5.979116 19.21000743 -1.75333833 9.96634422 0 0 Z " fill="#C60202" transform="translate(558,318)"/>
<path d="M0 0 C4.02480146 3.41233167 7.97709285 6.88065973 11.875 10.4375 C19.67834621 17.92337931 19.67834621 17.92337931 29 23 C29.33 23.99 29.66 24.98 30 26 C19.45464561 22.26169977 11.03969253 12.57468748 3 5 C2.39027344 4.43925781 1.78054688 3.87851562 1.15234375 3.30078125 C0 2 0 2 0 0 Z " fill="#6A0101" transform="translate(277,382)"/>
<path d="M0 0 C0.99 0 1.98 0 3 0 C2.67 10.89 2.34 21.78 2 33 C1.67 33 1.34 33 1 33 C0.67 22.11 0.34 11.22 0 0 Z " fill="#AC0808" transform="translate(562,258)"/>
<path d="M0 0 C0.66 0.33 1.32 0.66 2 1 C0.68 6.94 -0.64 12.88 -2 19 C-4.61032268 15.08451598 -3.86517129 12.38193238 -3 8 C-1.44611529 1.44611529 -1.44611529 1.44611529 0 0 Z " fill="#4E2A2A" transform="translate(243,237)"/>
<path d="M0 0 C1.80119314 3.27058754 2.81028015 6.51683039 3.75 10.125 C4.17539063 11.70667969 4.17539063 11.70667969 4.609375 13.3203125 C4.73828125 14.20460938 4.8671875 15.08890625 5 16 C4.34 16.66 3.68 17.32 3 18 C2.30030318 15.75376301 1.61564957 13.50283586 0.9375 11.25 C0.55464844 9.99703125 0.17179688 8.7440625 -0.22265625 7.453125 C-0.92656828 4.3261992 -1.16653785 2.90533954 0 0 Z " fill="#591414" transform="translate(242,314)"/>
<path d="M0 0 C0.33 0 0.66 0 1 0 C2.10765663 6.86747109 1.700773 12.26718787 0 19 C-2.67135401 15.16116535 -1.84057805 11.60104357 -1.125 7.25 C-1.02058594 6.55261719 -0.91617188 5.85523438 -0.80859375 5.13671875 C-0.55032364 3.42274441 -0.27667048 1.7111005 0 0 Z " fill="#4D0404" transform="translate(562,296)"/>
<path d="M0 0 C1.79275866 3.11910856 2.34290718 5.67682428 2.625 9.25 C2.69976563 10.14203125 2.77453125 11.0340625 2.8515625 11.953125 C2.92503906 12.96632813 2.92503906 12.96632813 3 14 C2.01 13.67 1.02 13.34 0 13 C-0.19466332 11.20909747 -0.38051213 9.41723495 -0.5625 7.625 C-0.66691406 6.62726563 -0.77132812 5.62953125 -0.87890625 4.6015625 C-1 2 -1 2 0 0 Z " fill="#2F0707" transform="translate(561,244)"/>
<path d="M0 0 C0.66 0.33 1.32 0.66 2 1 C1.34 1.66 0.68 2.32 0 3 C0.66 3.66 1.32 4.32 2 5 C-0.97 5.66 -3.94 6.32 -7 7 C-4.66666667 4.66666667 -2.33333333 2.33333333 0 0 Z " fill="#D10303" transform="translate(263,117)"/>
</svg>
